<svg width="24" height="24" viewBox="0 0 24 24" fill="none" xmlns="http://www.w3.org/2000/svg">
<path fill-rule="evenodd" clip-rule="evenodd" d="M10.0341 19C10.0946 18.9958 10.11 18.9964 10.1699 18.986C10.3047 18.9628 10.4342 18.9117 10.5485 18.8367C10.6063 18.7988 10.6568 18.7547 10.7072 18.7077L16.7074 12.7074C16.7488 12.6631 16.7604 12.653 16.7971 12.6045C16.8384 12.5501 16.874 12.4915 16.9034 12.4298C17.0316 12.1602 17.0316 11.8403 16.9034 11.5708C16.874 11.5091 16.8384 11.4504 16.7971 11.396C16.7604 11.3476 16.7488 11.3375 16.7074 11.2932L10.7072 5.29291C10.6628 5.25151 10.6527 5.23991 10.6043 5.20321C10.4772 5.10675 10.3272 5.04165 10.1699 5.0145C10.0577 4.9952 9.94234 4.9952 9.83008 5.0145C9.74033 5.03 9.65278 5.0578 9.57052 5.0969C9.25811 5.24546 9.0406 5.55362 9.0052 5.89774C8.99125 6.03374 9.0055 6.17225 9.04685 6.30256C9.0813 6.41111 9.13436 6.51356 9.20316 6.60427C9.23991 6.65272 9.25146 6.66282 9.29286 6.70717L14.586 12.0003L9.29286 17.2934L9.24626 17.3433C9.20801 17.3903 9.19711 17.4013 9.16381 17.4521C9.10135 17.5473 9.05535 17.6531 9.0284 17.7637C9.00685 17.8523 8.99745 17.9437 9.00055 18.0347C9.01235 18.3804 9.20836 18.7027 9.50987 18.8722C9.60913 18.928 9.71788 18.9667 9.83008 18.986C9.88999 18.9964 9.90539 18.9958 9.96589 19C9.98864 19 10.0114 19 10.0341 19Z" fill="white"/>
</svg>
